<svg width="109" height="107" viewBox="0 0 109 107" fill="none" xmlns="http://www.w3.org/2000/svg">
<g opacity="0.3">
<path opacity="0.3" d="M66.4552 16.1988L63.8392 15.3268L58.4939 14.5681H51.701L47.402 15.196L42.4491 16.626L37.8536 18.6927L31.1654 23.1486L28.4971 25.5553L26.3258 28.058L24.0935 31.1361L22.7157 33.29L21.3641 35.906L20.5357 38.3301L19.3847 40.9461L18.6958 44.2161L18.1464 45.9601L17.9546 51.1398V54.1744L18.1464 56.5288L18.8615 60.2173L19.5503 63.0513L20.2131 65.2575L21.3118 67.6206L22.8814 70.3761L24.7824 73.5676L28.2703 77.5701L29.7353 79.0961L32.4036 81.4854L35.2115 83.43L37.6792 84.9124L45.2482 88.008L48.1258 88.6968L52.4858 89.2026H54.9361V88.2521L55.2413 86.7436L56.0174 85.6274L56.6365 84.9124L56.3836 84.6682L55.2849 83.4561L54.4129 82.1045L53.8287 79.8548C46.6401 78.1778 40.2206 74.1407 35.5951 68.388C35.928 68.4929 36.2751 68.5458 36.6241 68.5449H36.7026C36.0657 68.1469 35.5445 67.5887 35.191 66.9261C34.8376 66.2635 34.6642 65.5198 34.6883 64.7692C34.6822 64.155 34.8013 63.546 35.0381 62.9794C35.275 62.4127 35.6247 61.9002 36.066 61.473C35.2631 61.6325 34.5418 62.0693 34.0285 62.707C33.5152 63.3446 33.2425 64.1425 33.2582 64.961C29.8023 59.2991 28.1865 52.7052 28.6331 46.087C29.0797 39.4689 31.5669 33.1518 35.7521 28.0056C36.3581 28.3276 37.0521 28.4446 37.7302 28.339C38.4082 28.2333 39.0338 27.9108 39.5131 27.4197C39.9924 26.9286 40.2996 26.2954 40.3887 25.615C40.4779 24.9346 40.3441 24.2436 40.0075 23.6456C43.633 20.6004 47.8641 18.3602 52.4205 17.0734C56.977 15.7866 61.7549 15.4825 66.4378 16.1813L66.4552 16.1988ZM40.0598 25.0321C40.0598 25.7259 39.7842 26.3913 39.2936 26.8819C38.803 27.3725 38.1376 27.6481 37.4438 27.6481C37.0545 27.6503 36.6698 27.5638 36.3189 27.3952C37.3895 26.144 38.5557 24.9779 39.8069 23.9072C39.9738 24.2587 40.0602 24.643 40.0598 25.0321Z" fill="white"/>
</g>
<g opacity="0.3">
<path opacity="0.3" d="M81.968 73.7507C81.8432 73.7417 81.7179 73.7417 81.5931 73.7507C81.1847 73.7503 80.782 73.8456 80.4171 74.0288C80.0522 74.212 79.7352 74.4781 79.4916 74.8058C79.9111 74.7049 80.3419 74.658 80.7734 74.6663C78.6256 76.1985 76.301 77.4663 73.8497 78.442V79.5669L73.7276 80.997L73.3352 81.9911L72.5591 83.1857L71.6871 84.1623L70.9023 84.9035L71.5651 85.4703L76.6139 82.3311L79.5177 80.0988L82.4215 77.3259L85.831 73.0705L88.2813 68.8762L90.3305 64.1238C88.2025 67.851 85.3609 71.1222 81.968 73.7507Z" fill="white"/>
</g>
<path d="M68.3562 77.5612V77.631L69.2282 80.247C69.2586 80.3195 69.3144 80.3784 69.3852 80.4127C69.4196 80.4205 69.4554 80.4205 69.4898 80.4127C69.5271 80.4216 69.5659 80.4216 69.6032 80.4127C70.2136 80.1336 71.9837 79.4884 72.8819 79.7587C72.9301 79.7756 72.9823 79.778 73.0318 79.7656C73.0814 79.7532 73.1263 79.7265 73.1609 79.6889C73.1954 79.6541 73.2194 79.6103 73.2302 79.5625C73.241 79.5147 73.2381 79.4648 73.222 79.4186L72.1232 76.0178C71.4477 75.9156 70.7571 76.0139 70.137 76.3007C69.517 76.5875 68.9948 77.0501 68.6352 77.631C68.6352 77.631 68.3562 77.5438 68.3562 77.5612ZM69.638 79.8284L69.0102 77.8926C69.3087 77.9051 69.601 77.9817 69.8673 78.1171C70.1336 78.2525 70.3677 78.4436 70.5536 78.6774C70.5783 78.715 70.6119 78.7458 70.6515 78.7672C70.6911 78.7885 70.7354 78.7996 70.7804 78.7995H70.8327C70.8853 78.7892 70.9338 78.764 70.9725 78.7269C71.0111 78.6898 71.0383 78.6423 71.0507 78.5902C71.1892 77.9252 71.4119 77.2805 71.7134 76.6718L72.5331 79.2006C71.5358 79.2141 70.5513 79.4276 69.638 79.8284ZM71.2251 76.4102C70.9682 76.8999 70.7692 77.4179 70.6321 77.9536C70.2078 77.6118 69.6922 77.4025 69.1497 77.352C69.6907 76.7772 70.4363 76.4389 71.2251 76.4102Z" fill="white"/>
<path d="M59.2346 77.631V77.5526C58.8763 76.97 58.3546 76.5057 57.7344 76.2173C57.1143 75.9289 56.423 75.8292 55.7466 75.9306H55.6943H55.6333L54.5258 79.3314C54.5127 79.3786 54.5122 79.4285 54.5245 79.4759C54.5367 79.5234 54.5613 79.5668 54.5956 79.6018C54.6295 79.6404 54.6744 79.6677 54.7242 79.6802C54.7741 79.6926 54.8265 79.6896 54.8746 79.6715C55.7466 79.4012 57.4906 80.0465 58.1446 80.3255C58.18 80.3425 58.2187 80.3513 58.258 80.3513C58.2972 80.3513 58.336 80.3425 58.3713 80.3255C58.4398 80.2909 58.4928 80.2317 58.5196 80.1598L59.3916 77.5438L59.2346 77.631ZM58.4237 77.352C57.8816 77.4046 57.3666 77.6136 56.9413 77.9537C56.8042 77.4179 56.6052 76.9 56.3483 76.4102C56.7392 76.423 57.1237 76.5128 57.4798 76.6744C57.8359 76.836 58.1567 77.0663 58.4237 77.352ZM57.9441 79.8285C57.0863 79.4611 56.1721 79.2428 55.2409 79.1832H55.0403L55.86 76.6544C56.1648 77.2626 56.3904 77.9073 56.5314 78.5728C56.5417 78.6259 56.5681 78.6746 56.6072 78.7121C56.6462 78.7496 56.6959 78.774 56.7494 78.7821H56.8017C56.8455 78.7823 56.8887 78.7712 56.9269 78.7498C56.9651 78.7284 56.9971 78.6975 57.0197 78.66C57.2086 78.4272 57.4445 78.237 57.712 78.1017C57.9795 77.9665 58.2725 77.8893 58.5719 77.8752L57.9441 79.8285Z" fill="white"/>
<path d="M61.6765 67.0188H60.0633C59.8852 67.0188 59.7144 67.0895 59.5885 67.2155C59.4626 67.3414 59.3918 67.5122 59.3918 67.6902C59.3918 67.8683 59.4626 68.0391 59.5885 68.165C59.7144 68.2909 59.8852 68.3617 60.0633 68.3617H61.6765C61.8546 68.3617 62.0253 68.2909 62.1513 68.165C62.2772 68.0391 62.3479 67.8683 62.3479 67.6902C62.3479 67.5122 62.2772 67.3414 62.1513 67.2155C62.0253 67.0895 61.8546 67.0188 61.6765 67.0188ZM61.6765 67.8123H60.0633C60.0309 67.8123 59.9999 67.7995 59.977 67.7766C59.9541 67.7537 59.9412 67.7226 59.9412 67.6902C59.9412 67.6579 59.9541 67.6268 59.977 67.6039C59.9999 67.581 60.0309 67.5682 60.0633 67.5682H61.6765C61.7089 67.5682 61.7399 67.581 61.7628 67.6039C61.7857 67.6268 61.7986 67.6579 61.7986 67.6902C61.7986 67.7226 61.7857 67.7537 61.7628 67.7766C61.7399 67.7995 61.7089 67.8123 61.6765 67.8123Z" fill="white"/>
<path d="M67.3881 67.0188H65.7662C65.5881 67.0188 65.4173 67.0895 65.2914 67.2155C65.1655 67.3414 65.0947 67.5122 65.0947 67.6902C65.0947 67.8683 65.1655 68.0391 65.2914 68.165C65.4173 68.2909 65.5881 68.3617 65.7662 68.3617H67.3881C67.5662 68.3617 67.7369 68.2909 67.8629 68.165C67.9888 68.0391 68.0595 67.8683 68.0595 67.6902C68.0595 67.5122 67.9888 67.3414 67.8629 67.2155C67.7369 67.0895 67.5662 67.0188 67.3881 67.0188ZM67.3881 67.8123H65.7662C65.7338 67.8123 65.7027 67.7995 65.6798 67.7766C65.6569 67.7537 65.6441 67.7226 65.6441 67.6902C65.6441 67.6579 65.6569 67.6268 65.6798 67.6039C65.7027 67.581 65.7338 67.5682 65.7662 67.5682H67.3881C67.4205 67.5682 67.4515 67.581 67.4744 67.6039C67.4973 67.6268 67.5102 67.6579 67.5102 67.6902C67.5102 67.7226 67.4973 67.7537 67.4744 67.7766C67.4515 67.7995 67.4205 67.8123 67.3881 67.8123Z" fill="white"/>
<path d="M60.9879 66.2688C61.2439 66.2706 61.4946 66.1961 61.7082 66.055C61.9217 65.9138 62.0885 65.7124 62.1873 65.4762C62.286 65.24 62.3123 64.9798 62.2628 64.7287C62.2133 64.4775 62.0902 64.2468 61.9092 64.0657C61.7282 63.8847 61.4974 63.7616 61.2463 63.7121C60.9951 63.6626 60.7349 63.6889 60.4987 63.7877C60.2626 63.8864 60.0611 64.0532 59.9199 64.2667C59.7788 64.4803 59.7044 64.731 59.7061 64.987C59.7061 65.327 59.8411 65.653 60.0815 65.8934C60.3219 66.1338 60.648 66.2688 60.9879 66.2688ZM60.9879 64.2545C61.1328 64.2545 61.2744 64.2975 61.3949 64.378C61.5153 64.4584 61.6092 64.5728 61.6646 64.7067C61.7201 64.8405 61.7346 64.9878 61.7063 65.1299C61.6781 65.272 61.6083 65.4025 61.5059 65.5049C61.4034 65.6074 61.2729 65.6771 61.1308 65.7054C60.9887 65.7337 60.8415 65.7192 60.7076 65.6637C60.5738 65.6083 60.4594 65.5144 60.3789 65.3939C60.2984 65.2735 60.2554 65.1319 60.2554 64.987C60.26 64.7958 60.3392 64.6139 60.476 64.4803C60.6129 64.3467 60.7966 64.2719 60.9879 64.272V64.2545Z" fill="white"/>
<path d="M66.3851 66.2688C66.6411 66.2706 66.8918 66.1961 67.1054 66.055C67.319 65.9138 67.4857 65.7124 67.5845 65.4762C67.6832 65.24 67.7095 64.9798 67.66 64.7287C67.6105 64.4775 67.4874 64.2468 67.3064 64.0657C67.1254 63.8847 66.8946 63.7616 66.6435 63.7121C66.3923 63.6626 66.1321 63.6889 65.8959 63.7877C65.6598 63.8864 65.4583 64.0532 65.3172 64.2667C65.176 64.4803 65.1016 64.731 65.1033 64.987C65.1033 65.327 65.2383 65.653 65.4787 65.8934C65.7191 66.1338 66.0452 66.2688 66.3851 66.2688ZM66.3851 64.2545C66.53 64.2545 66.6716 64.2975 66.7921 64.378C66.9125 64.4584 67.0064 64.5728 67.0619 64.7067C67.1173 64.8405 67.1318 64.9878 67.1035 65.1299C67.0753 65.272 67.0055 65.4025 66.9031 65.5049C66.8006 65.6074 66.6701 65.6771 66.528 65.7054C66.386 65.7337 66.2387 65.7192 66.1048 65.6637C65.971 65.6083 65.8566 65.5144 65.7761 65.3939C65.6956 65.2735 65.6527 65.1319 65.6527 64.987C65.6572 64.7958 65.7364 64.6139 65.8733 64.4803C66.0101 64.3467 66.1939 64.2719 66.3851 64.272V64.2545Z" fill="white"/>
<path d="M91.2027 61.2984C91.1672 61.2892 91.1302 61.2871 91.0939 61.2922C91.0576 61.2973 91.0227 61.3096 90.9911 61.3282C90.9595 61.3468 90.9319 61.3715 90.9099 61.4008C90.8878 61.4301 90.8718 61.4634 90.8626 61.499V61.6472L90.8103 61.6995C87.7613 66.2662 83.4629 69.8593 78.4279 72.0502C78.853 71.7411 79.2243 71.3639 79.5266 70.934C79.7452 70.6158 79.9321 70.277 80.0847 69.9225C80.1545 69.7655 80.2155 69.5998 80.2765 69.4254C80.2765 69.4254 80.2765 69.4254 80.2765 69.3818C80.8437 67.8062 80.8251 66.0791 80.2242 64.5161C79.204 62.153 76.5269 61.2722 75.7421 61.0281V56.2059C75.7422 55.9937 75.7001 55.7837 75.6184 55.5879C75.5366 55.392 75.4169 55.2144 75.2661 55.0652C75.1152 54.9159 74.9363 54.7981 74.7396 54.7185C74.5429 54.6389 74.3324 54.5991 74.1202 54.6014H72.0361C71.9758 54.6033 71.9176 54.6247 71.8705 54.6625L69.3591 56.6681C69.0951 56.9646 68.7671 57.1972 68.3999 57.3482C68.1404 57.4697 67.8723 57.5717 67.5977 57.6534C66.4596 57.9472 65.2837 58.0678 64.1097 58.011C59.8805 57.8714 57.7964 56.2146 57.7702 56.1972L55.721 54.6799C55.6735 54.6359 55.6114 54.611 55.5466 54.6101H53.4451C53.0211 54.6125 52.6152 54.7825 52.3162 55.0832C52.0172 55.3838 51.8493 55.7906 51.8493 56.2146V61.0717C51.0645 61.281 48.3613 62.1617 47.3673 64.5597C47.1366 65.1163 46.9897 65.704 46.9313 66.3037C42.7703 62.2248 39.9531 56.9734 38.8559 51.2509C37.7587 45.5284 38.4338 39.6074 40.7911 34.2788C43.1483 28.9501 47.0753 24.4677 52.0477 21.4302C57.02 18.3927 62.8008 16.9447 68.6179 17.2798C68.6462 17.2891 68.6768 17.2891 68.7051 17.2798H68.7836C68.8167 17.294 68.8524 17.3015 68.8885 17.3017C68.9245 17.3019 68.9603 17.2949 68.9936 17.2811C69.0269 17.2673 69.0571 17.2469 69.0825 17.2212C69.1078 17.1956 69.1277 17.1651 69.1411 17.1316C69.1669 17.0633 69.1649 16.9876 69.1356 16.9208C69.1062 16.854 69.0519 16.8013 68.9841 16.7741C62.1697 14.0644 54.7097 13.4148 47.5296 14.906C40.3494 16.3973 33.765 19.9636 28.5931 25.1627C21.5739 32.2304 17.6288 41.7834 17.6158 51.7444C17.6027 61.7053 21.5227 71.2687 28.5233 78.3547C31.9537 81.864 36.044 84.6605 40.5589 86.5835C45.0738 88.5065 49.9244 89.518 54.8316 89.5599C54.9067 89.6875 54.9943 89.8073 55.0932 89.9174C55.4377 90.2532 55.8479 90.5141 56.2981 90.6836C56.7483 90.8532 57.2288 90.9278 57.7092 90.9028H57.8574C58.5254 90.8682 59.1772 90.685 59.7655 90.3668C60.3538 90.0485 60.8638 89.6031 61.2582 89.0629C62.7298 88.8175 64.1857 88.4855 65.6182 88.0688C66.8303 89.9349 68.2342 90.9028 69.7515 90.9028H69.8997C70.3802 90.9278 70.8606 90.8532 71.3108 90.6836C71.761 90.5141 72.1712 90.2532 72.5157 89.9174C72.7653 89.6041 72.9469 89.2423 73.0489 88.8549C73.151 88.4676 73.1714 88.0633 73.1087 87.6677C73.0163 87.0784 72.7628 86.5261 72.3762 86.0719C72.2422 85.8801 72.0966 85.6966 71.9402 85.5226C76.6806 83.1385 80.8641 79.7801 84.2166 75.6672C87.5691 71.5543 90.0151 66.7796 91.3945 61.6559C91.4163 61.5831 91.4083 61.5046 91.3724 61.4376C91.3364 61.3706 91.2754 61.3206 91.2027 61.2984ZM90.3307 63.2691C89.0053 67.4148 86.9629 71.2959 84.2965 74.7359C84.0087 74.2752 83.6093 73.8945 83.1352 73.6293C82.6611 73.364 82.1278 73.2228 81.5845 73.2186C80.9555 73.2276 80.3423 73.4174 79.8182 73.7652C79.294 74.1131 78.881 74.6045 78.6285 75.1806C78.2881 75.9327 78.2211 76.78 78.4393 77.5761C78.6574 78.3723 79.1469 79.0672 79.8231 79.5406C77.3386 81.7751 74.5638 83.664 71.574 85.1563C71.4781 85.0517 71.3821 84.9732 71.3124 84.9034C71.9171 84.2944 72.4794 83.6447 72.9953 82.9589C73.0204 82.9334 73.041 82.9039 73.0564 82.8717C73.3044 82.5364 73.5232 82.1805 73.7104 81.8078C74.4254 80.3603 74.0766 77.5089 73.6057 75.8346H74.1202C74.5434 75.8346 74.9493 75.6665 75.2486 75.3672C75.5479 75.068 75.716 74.6621 75.716 74.2389V73.6982C81.5691 71.8525 86.6879 68.2019 90.3394 63.2691H90.3307ZM83.2675 75.9567C82.3955 74.5354 80.6515 74.5005 79.483 74.7795C79.7267 74.4518 80.0436 74.1857 80.4085 74.0025C80.7735 73.8193 81.1762 73.724 81.5845 73.7244C82.067 73.7296 82.5391 73.8643 82.9518 74.1143C83.3644 74.3643 83.7023 74.7205 83.9302 75.1458C83.7122 75.4248 83.4942 75.6864 83.2675 75.9567ZM67.4058 87.9293C66.7123 87.1272 66.1768 86.2011 65.8275 85.1999C66.4955 85.3621 67.1805 85.4441 67.868 85.4441C68.6799 85.4439 69.4876 85.3264 70.266 85.0953C70.2318 85.1438 70.2135 85.2016 70.2135 85.261C70.2135 85.3203 70.2318 85.3781 70.266 85.4266C70.2931 85.4546 70.3257 85.4767 70.3617 85.4917C70.3976 85.5067 70.4363 85.5142 70.4753 85.5138C70.5089 85.515 70.5424 85.5094 70.5739 85.4974C70.6053 85.4854 70.634 85.4673 70.6584 85.4441L70.8764 85.2435C71.1006 85.4373 71.3105 85.6471 71.5042 85.8714C70.7147 85.9067 69.9416 86.1083 69.2354 86.4629C68.5291 86.8175 67.9057 87.3172 67.4058 87.9293ZM66.6821 81.9038C66.6821 81.9038 64.6154 80.587 64.4323 79.2878C64.4059 79.1071 64.4212 78.9227 64.4771 78.7489C64.5331 78.575 64.6281 78.4163 64.7549 78.285C65.6627 77.2556 66.7729 76.4244 68.0162 75.8433C70.0305 75.0237 72.3762 74.4743 72.7076 75.0237C73.318 76.1224 73.9458 79.9854 73.1872 81.5201C73 81.8927 72.7812 82.2486 72.5332 82.5839C72.3588 82.8019 71.6176 83.4559 69.5161 83.6826C68.1691 83.8509 66.8077 83.5121 65.6967 82.7322C65.6967 82.4182 65.6967 82.1043 65.6967 81.8602C65.9233 82.0435 66.159 82.2152 66.403 82.3746C66.4333 82.3938 66.4671 82.4067 66.5024 82.4127C66.5377 82.4187 66.5739 82.4176 66.6087 82.4095C66.6436 82.4014 66.6766 82.3864 66.7056 82.3654C66.7347 82.3445 66.7593 82.318 66.778 82.2874C66.797 82.256 66.8095 82.2211 66.815 82.1847C66.8204 82.1484 66.8186 82.1113 66.8097 82.0757C66.8008 82.04 66.785 82.0065 66.763 81.977C66.7411 81.9475 66.7136 81.9226 66.6821 81.9038ZM63.6562 78.625C63.5763 78.3584 63.4361 78.1137 63.2464 77.91C62.285 76.7976 61.0954 75.9054 59.7584 75.294C58.9969 74.9935 58.2197 74.7344 57.4301 74.5179C56.6092 74.2215 55.7235 74.1522 54.8665 74.3174C54.7178 73.9471 54.6124 73.5608 54.5525 73.1663C55.4451 73.0026 56.2545 72.5378 56.8459 71.8496C57.0975 71.8995 57.3568 71.8962 57.6071 71.84C57.8574 71.7838 58.0932 71.6758 58.2993 71.5231C58.5054 71.3704 58.6773 71.1762 58.8039 70.9531C58.9305 70.73 59.0091 70.4829 59.0346 70.2277V70.2015C59.3161 70.4214 59.6628 70.5411 60.02 70.5416H67.5977C67.9333 70.5422 68.2603 70.4353 68.5307 70.2364C68.5419 70.4655 68.5981 70.6902 68.6963 70.8975C68.7944 71.1049 68.9325 71.2908 69.1026 71.4447C69.2727 71.5986 69.4715 71.7175 69.6875 71.7944C69.9036 71.8714 70.1328 71.9049 70.3619 71.8932C70.4807 71.9061 70.6006 71.9061 70.7194 71.8932C71.3161 72.575 72.1231 73.0384 73.0128 73.2099C72.9529 73.6044 72.8476 73.9907 72.6989 74.361C71.8418 74.1963 70.9562 74.2655 70.1352 74.5615C69.3478 74.7757 68.5734 75.0348 67.8157 75.3376C66.4785 75.9488 65.2888 76.8411 64.3277 77.9536C64.1376 78.1604 63.9974 78.408 63.9178 78.6774C63.8293 78.6672 63.7418 78.6497 63.6562 78.625ZM55.3722 89.3419C55.0807 88.8355 54.9671 88.2461 55.0496 87.6677C55.1209 87.2334 55.2976 86.8233 55.5641 86.473C57.6481 86.1155 59.2875 87.7549 59.7845 88.3217C59.5399 88.551 59.2709 88.7527 58.9823 88.9234C58.4383 89.2288 57.839 89.4231 57.2193 89.4949C56.5995 89.5668 55.9717 89.5148 55.3722 89.3419ZM60.1682 87.9293C59.667 87.3123 59.0397 86.8095 58.3283 86.4546C57.617 86.0997 56.8381 85.9008 56.0437 85.8714C56.2878 85.601 56.5233 85.383 56.6715 85.2435L56.8895 85.4441C56.9152 85.468 56.9454 85.4865 56.9783 85.4984C57.0113 85.5104 57.0463 85.5157 57.0813 85.5138C57.1191 85.5146 57.1566 85.5073 57.1912 85.4922C57.2258 85.4771 57.2567 85.4548 57.2819 85.4266C57.3173 85.3787 57.3364 85.3206 57.3364 85.261C57.3364 85.2013 57.3173 85.1433 57.2819 85.0953C58.7261 85.5218 60.2576 85.5579 61.7204 85.1999C61.3825 86.2007 60.8556 87.1273 60.1682 87.9293ZM56.375 84.1535L56.096 83.857C56.7188 84.0701 57.3665 84.202 58.0231 84.2494H58.6858C59.8311 84.2757 60.9599 83.9731 61.9384 83.3774C61.9546 83.6825 62.038 83.9803 62.1825 84.2494C62.1825 84.3279 62.2785 84.3977 62.3221 84.4674C60.3698 85.107 58.2491 84.995 56.375 84.1535ZM60.9094 81.9038C60.8471 81.9432 60.803 82.0057 60.7867 82.0776C60.7703 82.1495 60.7831 82.2249 60.8222 82.2874C60.8409 82.318 60.8655 82.3445 60.8946 82.3654C60.9236 82.3864 60.9566 82.4014 60.9915 82.4095C61.0263 82.4176 61.0625 82.4187 61.0978 82.4127C61.1331 82.4067 61.1669 82.3938 61.1972 82.3746C61.4412 82.2152 61.6769 82.0435 61.9035 81.8602C61.9035 82.1305 61.9035 82.4357 61.9035 82.7322C60.7902 83.5143 59.4253 83.8531 58.0754 83.6826C55.9913 83.4995 55.2501 82.8106 55.067 82.5926C54.8082 82.2504 54.5805 81.8856 54.3869 81.5026C53.6282 79.9679 54.2561 76.1049 54.8665 75.0062C55.1717 74.4569 57.5435 75.0062 59.5665 75.8259C60.8134 76.4014 61.927 77.2299 62.8365 78.2588C62.9661 78.3886 63.0635 78.5468 63.121 78.7209C63.1785 78.8951 63.1946 79.0802 63.1679 79.2616C62.9761 80.587 60.9269 81.895 60.9094 81.9038ZM47.9602 69.6696C47.9166 69.5737 47.8817 69.4778 47.8469 69.3818C48.095 69.2335 48.3775 69.1524 48.6665 69.1464C48.7297 69.3413 48.8085 69.5309 48.902 69.7132C48.6758 69.7536 48.4665 69.8597 48.3003 70.0184C48.2586 70.0527 48.2231 70.094 48.1957 70.1405C48.1085 69.988 48.0299 69.8308 47.9602 69.6696ZM47.7771 64.9521C48.1549 65.0779 48.4681 65.3473 48.6491 65.702C48.5591 65.9858 48.4977 66.2779 48.466 66.574C48.3493 67.2491 48.3493 67.9393 48.466 68.6145C48.1606 68.6292 47.8626 68.7127 47.594 68.8586C47.2539 67.5672 47.324 66.2019 47.7945 64.9521H47.7771ZM48.3439 63.897C48.6788 64.0389 48.9576 64.2871 49.1374 64.6033C49.0502 64.7515 48.9717 64.8998 48.8933 65.0654C48.6611 64.787 48.3606 64.5737 48.0213 64.4463C48.1244 64.2571 48.238 64.0737 48.3613 63.897H48.3439ZM55.6164 59.9119L56.1309 60.1299L55.7123 60.8886L55.0496 60.5485C55.2414 60.3392 55.4333 60.1212 55.6164 59.9119ZM54.6921 60.9845L55.6949 61.5077H55.8169C55.8663 61.5081 55.915 61.4954 55.9579 61.4709C56.0008 61.4464 56.0364 61.4109 56.0611 61.3682L56.7587 60.1038C56.7738 60.0694 56.7816 60.0323 56.7816 59.9948C56.7816 59.9572 56.7738 59.9201 56.7587 59.8858C56.7462 59.8484 56.7257 59.8142 56.6986 59.7855C56.6714 59.7569 56.6384 59.7346 56.6017 59.7201L56.0088 59.4585C56.3643 59.0866 56.7398 58.7344 57.1337 58.4034C57.4218 58.718 57.7645 58.978 58.1452 59.1707C57.6656 59.6503 55.9129 61.6559 54.5613 66.356C54.4828 66.6263 54.413 66.8879 54.352 67.1495C53.4583 67.0259 52.55 67.0553 51.6662 67.2367C51.6662 66.8879 51.797 65.859 52.9045 63.6179C53.4023 62.6828 54.0018 61.8055 54.6921 61.0019V60.9845ZM59.3398 57.7581C59.0914 58.1131 58.9603 58.5369 58.9649 58.9701L58.5637 58.787C58.5395 58.3574 58.6834 57.9353 58.9649 57.6098L59.3398 57.7581ZM63.1592 58.569C63.1592 58.8306 63.1592 59.2579 63.1592 59.7113C61.9318 59.6806 60.7131 59.496 59.5317 59.162C59.4989 58.9468 59.5131 58.727 59.5733 58.5178C59.6335 58.3085 59.7383 58.1148 59.8805 57.9499C60.9442 58.2915 62.0449 58.5052 63.1592 58.5865V58.569ZM63.9701 58.6213C64.0099 58.9923 64.0099 59.3665 63.9701 59.7375H63.6911C63.6911 59.2928 63.6911 58.8655 63.6911 58.6126L63.9701 58.6213ZM68.3301 57.9761C68.5476 58.3436 68.6336 58.774 68.5743 59.1969L68.1557 59.3277C68.2117 58.9355 68.1636 58.5356 68.0162 58.1679L68.3301 57.9761ZM70.327 58.8481C70.4073 58.7675 70.4802 58.6799 70.545 58.5865C70.763 58.7783 71.1205 59.101 71.5391 59.5282L70.9113 59.7898C70.8768 59.8039 70.8458 59.8252 70.8202 59.8523C70.7946 59.8794 70.7751 59.9116 70.763 59.9468C70.7479 59.9811 70.7401 60.0183 70.7401 60.0558C70.7401 60.0933 70.7479 60.1304 70.763 60.1648L71.417 61.4292C71.4406 61.4736 71.4757 61.5108 71.5187 61.5369C71.5617 61.563 71.6109 61.577 71.6612 61.5774C71.6955 61.5859 71.7315 61.5859 71.7658 61.5774L72.9343 61.1414C73.576 61.9535 74.1313 62.8302 74.5911 63.7574C75.7334 65.92 75.8642 66.949 75.8642 67.2978C74.9835 67.1155 74.0779 67.086 73.1872 67.2106C73.1174 66.949 73.0477 66.6874 72.9692 66.417C71.7397 62.1442 70.1875 60.1038 69.5509 59.441C69.8476 59.2757 70.118 59.067 70.3532 58.8219L70.327 58.8481ZM72.5768 60.6706L71.8094 60.9583L71.3996 60.1822L71.9402 59.9555C72.1757 60.1474 72.3762 60.3915 72.6029 60.6444L72.5768 60.6706ZM75.7073 64.6556V62.8244C76.4467 63.1957 77.0875 63.737 77.5771 64.404C78.0667 65.0709 78.3912 65.8445 78.5238 66.6612C78.6502 67.3634 78.6353 68.0837 78.4802 68.7802C78.4764 68.7974 78.4764 68.8152 78.4802 68.8325C78.3832 69.1651 78.2393 69.4822 78.0529 69.7742C78.0308 69.7936 78.013 69.8173 78.0006 69.844C77.8826 70.0214 77.7419 70.1827 77.5821 70.3236C77.4951 70.1819 77.3928 70.0503 77.2769 69.9312C77.2018 69.8544 77.1201 69.7843 77.0327 69.7219C77.16 69.4108 77.1997 69.0708 77.1475 68.7388C77.0952 68.4067 76.953 68.0953 76.7362 67.8384C76.643 67.7051 76.5208 67.5948 76.3787 67.5158C76.3919 66.5469 76.161 65.5903 75.7073 64.7341C75.7203 64.7004 75.7291 64.6653 75.7334 64.6294L75.7073 64.6556ZM79.5441 64.4725C79.2056 64.6016 78.9055 64.8146 78.6721 65.0916C78.6012 64.9322 78.5196 64.7778 78.4279 64.6294C78.6125 64.3172 78.8899 64.0703 79.2214 63.9231C79.3497 64.0892 79.4663 64.264 79.5702 64.4463L79.5441 64.4725ZM79.8754 68.8325C79.6057 68.6892 79.3083 68.6059 79.0034 68.5883C79.1378 67.9162 79.1555 67.226 79.0557 66.5478C79.0154 66.2532 78.9542 65.9618 78.8726 65.6758C78.9599 65.4985 79.0821 65.3406 79.232 65.2117C79.3818 65.0828 79.5562 64.9856 79.7446 64.9259C80.1999 66.1865 80.2548 67.557 79.9016 68.8499L79.8754 68.8325ZM51.0994 69.4516C51.0111 69.2339 50.984 68.9962 51.0209 68.7641C51.0577 68.5321 51.1573 68.3145 51.3087 68.1349C51.6575 67.6204 53.2184 67.6117 54.2909 67.7338C54.1689 68.2744 54.0817 68.7889 54.0119 69.2685C53.0336 69.1064 52.0304 69.1873 51.0907 69.5039L51.0994 69.4516ZM54.4217 71.8496C55.5509 71.5337 56.5708 70.9121 57.3691 70.0533C57.118 70.6725 56.7279 71.2258 56.2289 71.6703C55.73 72.1148 55.1355 72.4387 54.4915 72.617C54.4479 72.4251 54.4305 72.1635 54.413 71.867L54.4217 71.8496ZM57.9097 70.2538C57.9097 70.2538 57.9097 70.2538 57.9097 70.2015C57.9477 70.0839 57.9506 69.9578 57.9181 69.8386C57.8855 69.7193 57.819 69.6121 57.7266 69.5301C57.6315 69.4741 57.5231 69.4446 57.4127 69.4446C57.3023 69.4446 57.1939 69.4741 57.0988 69.5301L57.0203 69.5911C56.7226 69.928 56.3792 70.2215 56.0001 70.4631C55.9869 70.3764 55.9869 70.2882 56.0001 70.2015C55.9651 69.9453 56.0085 69.6845 56.1244 69.4534C56.2404 69.2223 56.4235 69.0317 56.6498 68.9066C56.8761 68.7814 57.1349 68.7277 57.3923 68.7523C57.6497 68.7769 57.8936 68.8788 58.092 69.0446C58.2905 69.2104 58.4341 69.4323 58.5041 69.6813C58.5741 69.9302 58.5672 70.1944 58.4843 70.4393C58.4014 70.6842 58.2464 70.8984 58.0395 71.0536C57.8327 71.2088 57.5838 71.2978 57.3255 71.309C57.5483 70.9841 57.7354 70.6362 57.8836 70.2713L57.9097 70.2538ZM68.7574 67.943C68.7574 68.0804 68.7304 68.2165 68.6778 68.3435C68.6252 68.4704 68.5481 68.5858 68.4509 68.6829C68.3538 68.7801 68.2384 68.8572 68.1115 68.9098C67.9845 68.9624 67.8484 68.9894 67.711 68.9894H59.863C59.7256 68.9894 59.5895 68.9624 59.4626 68.9098C59.3356 68.8572 59.2203 68.7801 59.1231 68.6829C59.0259 68.5858 58.9489 68.4704 58.8963 68.3435C58.8437 68.2165 58.8166 68.0804 58.8166 67.943V64.3591C58.8166 64.0816 58.9269 63.8154 59.1231 63.6192C59.3193 63.423 59.5855 63.3127 59.863 63.3127H67.711C67.9885 63.3127 68.2547 63.423 68.4509 63.6192C68.6472 63.8154 68.7574 64.0816 68.7574 64.3591V67.943ZM59.8281 69.5562H67.6761C67.9896 69.5453 68.2929 69.4421 68.5481 69.2598C68.4828 69.4722 68.3509 69.6581 68.1719 69.7899C67.9929 69.9218 67.7764 69.9927 67.5541 69.9922H60.0287C59.8251 69.9923 59.6258 69.9329 59.4555 69.8214C59.2851 69.7098 59.151 69.551 59.0695 69.3644C59.3027 69.49 59.5633 69.5559 59.8281 69.5562ZM71.6001 70.5329C71.2254 70.2854 70.8827 69.9925 70.5799 69.6609C70.5596 69.634 70.5325 69.6129 70.5014 69.5998C70.4063 69.5439 70.2979 69.5143 70.1875 69.5143C70.0771 69.5143 69.9687 69.5439 69.8736 69.5998C69.7812 69.6819 69.7147 69.7891 69.6821 69.9083C69.6496 70.0275 69.6525 70.1537 69.6905 70.2713C69.6867 70.2885 69.6867 70.3064 69.6905 70.3236C69.8457 70.7156 70.0477 71.0875 70.2921 71.431C70.0824 71.3913 69.8884 71.2928 69.7326 71.1469C69.5768 71.001 69.4657 70.8138 69.4123 70.6072C69.3589 70.4005 69.3654 70.183 69.4311 69.9799C69.4967 69.7768 69.6187 69.5966 69.783 69.4602C69.9472 69.3239 70.1468 69.2371 70.3585 69.21C70.5702 69.1829 70.7853 69.2166 70.9785 69.3071C71.1718 69.3976 71.3354 69.5413 71.4501 69.7213C71.5648 69.9013 71.6259 70.1102 71.6263 70.3236C71.6261 70.3942 71.6173 70.4644 71.6001 70.5329ZM70.2311 70.1056C71.0294 70.9644 72.0493 71.586 73.1785 71.9019C73.1785 72.1897 73.1785 72.46 73.1087 72.7042C72.4611 72.5223 71.8644 72.1931 71.3652 71.7423C70.8659 71.2915 70.4778 70.7314 70.2311 70.1056ZM76.2828 68.1523C76.4404 68.3355 76.5443 68.5587 76.5827 68.7973C76.6212 69.0359 76.5929 69.2805 76.5008 69.5039C75.5563 69.2069 74.5538 69.144 73.5796 69.3208C73.5185 68.8412 73.4226 68.3267 73.3005 67.7861C74.3818 67.6291 75.934 67.6378 76.2828 68.1523ZM77.1548 70.8206C77.3113 71.2035 77.3113 71.6324 77.1548 72.0153C77.0416 72.2417 76.8769 72.4385 76.674 72.59C76.4711 72.7414 76.2356 72.8432 75.9863 72.8873C75.9263 72.5997 75.9263 72.3028 75.9863 72.0153C76.0158 71.9481 76.0178 71.8721 75.9917 71.8035C75.9656 71.735 75.9135 71.6795 75.8468 71.649C75.813 71.6347 75.7767 71.6271 75.74 71.6268C75.7033 71.6265 75.6669 71.6334 75.6329 71.6472C75.5989 71.6609 75.5679 71.6813 75.5418 71.707C75.5156 71.7328 75.4948 71.7635 75.4805 71.7973C75.3824 72.1835 75.3824 72.5882 75.4805 72.9745C75.3877 72.9832 75.2943 72.9832 75.2015 72.9745C74.9681 72.9717 74.7351 72.9542 74.5039 72.9222C74.4475 72.6342 74.4475 72.3381 74.5039 72.0502C74.5334 71.983 74.5354 71.907 74.5093 71.8384C74.4831 71.7699 74.4311 71.7144 74.3644 71.6839C74.3312 71.6697 74.2956 71.6623 74.2595 71.6621C74.2234 71.6619 74.1877 71.6689 74.1544 71.6827C74.1211 71.6965 74.0908 71.7168 74.0655 71.7425C74.0402 71.7682 74.0202 71.7987 74.0069 71.8322C73.8977 72.1579 73.8737 72.5061 73.9371 72.8437C73.8427 72.8227 73.7496 72.7965 73.6581 72.7652C73.7731 71.7832 73.7731 70.7911 73.6581 69.8091C74.5301 69.6783 76.1345 69.5824 76.8409 70.2887C76.985 70.4427 77.0976 70.6234 77.1722 70.8206H77.1548ZM73.2482 74.7359L73.1959 74.6487L73.2482 74.579C73.4222 74.1743 73.5452 73.7496 73.6145 73.3146C73.8172 73.3802 74.024 73.4327 74.2336 73.4715C74.5539 73.5233 74.8772 73.5554 75.2015 73.5674V74.1691C75.2015 74.3065 75.1744 74.4426 75.1219 74.5696C75.0693 74.6965 74.9922 74.8119 74.895 74.909C74.7978 75.0062 74.6825 75.0833 74.5555 75.1359C74.4286 75.1884 74.2925 75.2155 74.1551 75.2155H73.4226C73.3739 75.0524 73.3157 74.8922 73.2482 74.7359ZM69.019 59.6503C69.4725 60.1212 71.138 62.0745 72.4285 66.5653C72.8933 68.102 73.1457 69.6951 73.1785 71.3002C72.7973 71.1844 72.4291 71.0296 72.0797 70.8381C72.1557 70.6588 72.1943 70.466 72.1931 70.2713C72.1661 69.8132 71.9596 69.3843 71.6185 69.0774C71.2773 68.7705 70.829 68.6105 70.3706 68.6319C69.95 68.6307 69.5402 68.7652 69.2021 69.0156V68.6319C69.2102 68.5946 69.2102 68.5559 69.2021 68.5186C69.2682 68.3367 69.3036 68.1452 69.3068 67.9518V64.3591C69.3068 63.9359 69.1387 63.53 68.8394 63.2307C68.5401 62.9315 68.1342 62.7634 67.711 62.7634H59.863C59.4398 62.7634 59.0339 62.9315 58.7346 63.2307C58.4354 63.53 58.2673 63.9359 58.2673 64.3591V67.9605C58.2696 68.2289 58.3385 68.4926 58.4678 68.7278V69.033C58.1114 68.7585 57.6705 68.6167 57.2209 68.6319C56.9918 68.6214 56.7629 68.6561 56.5472 68.7341C56.3316 68.8122 56.1335 68.932 55.9642 69.0867C55.7949 69.2414 55.6578 69.428 55.5607 69.6357C55.4636 69.8435 55.4085 70.0683 55.3984 70.2974C55.3984 70.4912 55.4338 70.6833 55.503 70.8642C55.1537 71.0557 54.7855 71.2106 54.4043 71.3264C54.4383 69.7214 54.6906 68.1284 55.1542 66.5914C56.6453 61.403 58.6422 59.6154 58.6422 59.5631C58.6644 59.5474 58.6824 59.5264 58.6945 59.5021C58.8253 59.5544 58.9649 59.6067 59.1131 59.6503H59.2003C60.5186 60.0361 61.8819 60.2472 63.2551 60.2782H63.3772H64.3974C65.9635 60.3557 67.5304 60.1428 69.019 59.6503ZM58.0144 58.4818C57.6914 58.2745 57.4438 57.9688 57.3081 57.6098C57.2614 57.4716 57.2546 57.323 57.2886 57.1811C57.3225 57.0392 57.3957 56.9098 57.4999 56.8076C57.8006 57.0172 58.1186 57.201 58.4504 57.357C58.2034 57.6841 58.0524 58.0736 58.0144 58.4818ZM51.9104 64.7341C51.4518 65.5888 51.2178 66.5459 51.2302 67.5158C51.0923 67.5972 50.9734 67.7072 50.8814 67.8384C50.6623 68.094 50.518 68.405 50.4641 68.7373C50.4103 69.0695 50.4491 69.4102 50.5762 69.7219C50.4898 69.7823 50.4108 69.8525 50.3408 69.9312C50.2195 70.0478 50.114 70.1797 50.0269 70.3236C49.8736 70.1763 49.7335 70.0158 49.6083 69.844C49.599 69.8179 49.5841 69.7941 49.5647 69.7742C49.3783 69.4822 49.2345 69.1651 49.1374 68.8325C49.1374 68.8325 49.1374 68.8325 49.1374 68.7802C48.9549 68.0802 48.9163 67.3504 49.0241 66.635C49.1607 65.8198 49.4867 65.0479 49.9759 64.3816C50.4651 63.7152 51.1038 63.1729 51.8406 62.7982V64.6294C51.8438 64.6666 51.8558 64.7024 51.8755 64.7341H51.9104ZM48.7014 70.3759C48.8523 70.2492 49.0452 70.1838 49.2421 70.1928C49.408 70.4246 49.6045 70.6329 49.8263 70.8119C49.732 71.1166 49.7111 71.4393 49.7653 71.7537C49.2895 71.4716 48.8769 71.0947 48.5532 70.6462C48.5743 70.5433 48.626 70.4491 48.7014 70.3759ZM50.4454 72.0153C50.3658 71.8247 50.3248 71.6202 50.3248 71.4136C50.3248 71.207 50.3658 71.0025 50.4454 70.8119C50.5234 70.6195 50.639 70.4446 50.7855 70.2974C51.5529 69.5301 53.323 69.7132 53.977 69.8178C53.8672 70.8001 53.8672 71.7916 53.977 72.7739L53.7067 72.8611C53.7704 72.5206 53.7464 72.1695 53.6369 71.8409C53.6227 71.8071 53.6019 71.7764 53.5757 71.7506C53.5496 71.7249 53.5186 71.7045 53.4846 71.6908C53.4506 71.677 53.4142 71.6701 53.3774 71.6704C53.3408 71.6707 53.3045 71.6783 53.2707 71.6926C53.204 71.7231 53.1519 71.7786 53.1258 71.8471C53.0997 71.9157 53.1016 71.9917 53.1312 72.0589C53.1916 72.3464 53.1916 72.6434 53.1312 72.9309C52.897 72.9626 52.6611 72.9801 52.4249 72.9832C52.335 72.9919 52.2444 72.9919 52.1545 72.9832C52.2357 72.5926 52.2177 72.1879 52.1022 71.806C52.0888 71.7725 52.0689 71.742 52.0436 71.7163C52.0182 71.6907 51.988 71.6703 51.9547 71.6565C51.9214 71.6427 51.8856 71.6357 51.8496 71.6359C51.8135 71.6361 51.7779 71.6436 51.7447 71.6578C51.7109 71.672 51.6802 71.6928 51.6545 71.719C51.6287 71.7451 51.6084 71.7761 51.5946 71.8101C51.5808 71.8441 51.5739 71.8805 51.5742 71.9172C51.5745 71.9539 51.5821 71.9902 51.5965 72.024C51.6607 72.3111 51.6607 72.6089 51.5965 72.896C51.3458 72.8592 51.1076 72.7634 50.9014 72.6163C50.6951 72.4692 50.5269 72.2751 50.4105 72.0502L50.4454 72.0153ZM52.4336 73.5587C52.7579 73.5475 53.0812 73.5155 53.4015 73.4628C53.6248 73.4361 53.8461 73.3953 54.0642 73.3407C54.1286 73.7768 54.2518 74.2021 54.4305 74.6051C54.4398 74.6312 54.4547 74.655 54.4741 74.6749L54.4217 74.7621C54.3392 74.9161 54.2692 75.0764 54.2125 75.2417H53.4887C53.3513 75.2417 53.2152 75.2146 53.0883 75.162C52.9613 75.1094 52.8459 75.0324 52.7488 74.9352C52.6516 74.838 52.5745 74.7227 52.522 74.5957C52.4694 74.4688 52.4423 74.3327 52.4423 74.1953L52.4336 73.5587ZM65.4002 84.2494C65.5408 83.9787 65.6239 83.6818 65.6444 83.3774C66.6196 83.9733 67.7457 84.276 68.8882 84.2494H69.5597C70.2133 84.2012 70.858 84.0693 71.4781 83.857L71.2077 84.1535C69.3305 84.9948 67.2072 85.1067 65.252 84.4674L65.4002 84.2494ZM77.8262 71.7886C77.8757 71.474 77.8549 71.1523 77.7652 70.8468C77.987 70.6677 78.1835 70.4595 78.3494 70.2277C78.5434 70.22 78.7332 70.2854 78.8813 70.4108C78.9568 70.484 79.0084 70.5782 79.0296 70.6811C78.7111 71.131 78.301 71.5084 77.8262 71.7886ZM79.3522 70.1405L79.2476 70.0184C79.0781 69.8595 78.866 69.7534 78.6372 69.7132C78.7307 69.5309 78.8094 69.3413 78.8726 69.1464C79.18 69.1388 79.4829 69.2206 79.7446 69.3818C79.7446 69.4778 79.6661 69.5737 79.6225 69.6696C79.5789 69.7655 79.4569 69.9835 79.3522 70.1405ZM78.8377 63.461C78.5399 63.6166 78.2784 63.8335 78.0704 64.0975C77.4486 63.2771 76.638 62.619 75.7073 62.1791V61.6559C76.8943 61.983 77.9799 62.6038 78.8639 63.461H78.8377ZM72.1059 55.1595H74.1202C74.3977 55.1595 74.6639 55.2698 74.8601 55.466C75.0564 55.6622 75.1666 55.9284 75.1666 56.2059V61.2722V63.5569L75.123 63.3999C74.0396 61.3506 72.5814 59.5227 70.8241 58.011C70.8675 57.8669 70.8852 57.7164 70.8764 57.5662C70.8743 57.4241 70.8413 57.2842 70.7795 57.1561C70.7178 57.0281 70.6288 56.9151 70.5189 56.825C70.4306 56.7505 70.3304 56.6916 70.2224 56.6506L72.1059 55.1595ZM69.6381 57.1477C69.82 57.1393 69.9999 57.1881 70.1526 57.2872C70.2006 57.3316 70.2386 57.3856 70.2641 57.4457C70.2897 57.5058 70.3022 57.5707 70.3009 57.636C70.298 57.7877 70.264 57.9371 70.201 58.0751C70.138 58.2131 70.0474 58.3367 69.9346 58.4382C69.7032 58.6628 69.4348 58.8457 69.1411 58.9789C69.1472 58.5512 69.0388 58.1297 68.8272 57.7581C69.1364 57.5996 69.4189 57.3937 69.6643 57.1477H69.6381ZM67.4233 58.2987C67.6138 58.6632 67.6694 59.0832 67.5802 59.4846C66.5713 59.6756 65.5463 59.7691 64.5195 59.7637C64.5511 59.3923 64.5511 59.0189 64.5195 58.6475C65.5071 58.6584 66.492 58.5412 67.4494 58.2987H67.4233ZM53.4189 55.1595H55.4245L57.0377 56.5024C56.8795 56.6779 56.7703 56.8921 56.7213 57.1233C56.6724 57.3545 56.6852 57.5945 56.7587 57.8191L56.8197 57.9761C55.0321 59.5014 53.5522 61.3542 52.4597 63.4348L52.39 63.5656V56.2059C52.39 56.0678 52.4173 55.931 52.4705 55.8035C52.5236 55.6759 52.6014 55.5602 52.6995 55.4629C52.7976 55.3656 52.914 55.2887 53.042 55.2366C53.1699 55.1846 53.307 55.1584 53.4451 55.1595H53.4189ZM51.8493 61.6559V62.1966C50.9186 62.6364 50.108 63.2945 49.4862 64.115C49.2811 63.8516 49.0226 63.6346 48.7276 63.4784C49.6003 62.6205 50.6733 61.9941 51.8493 61.6559ZM18.1465 51.8285C18.1396 42.0023 22.0298 32.5743 28.964 25.6123C35.8983 18.6502 45.3106 14.7223 55.1368 14.69C59.2225 14.6823 63.2809 15.3572 67.1442 16.6869C61.2987 16.6537 55.578 18.3776 50.7242 21.6351C45.8703 24.8926 42.1072 29.5335 39.9229 34.9557C37.7386 40.3779 37.2339 46.3313 38.4742 52.0438C39.7146 57.7563 42.6427 62.9644 46.8789 66.9926C46.8794 67.79 47.0089 68.5822 47.2626 69.3382C47.2626 69.3382 47.2626 69.3382 47.2626 69.3818C47.3237 69.5562 47.3847 69.7219 47.4545 69.8789C47.6066 70.2354 47.7966 70.5745 48.0213 70.8904C48.5056 71.6058 49.1915 72.1612 49.992 72.4862C50.1935 72.7875 50.4622 73.0381 50.7769 73.2181C51.0916 73.3982 51.4438 73.5028 51.8057 73.5238V74.1517C51.8057 74.5749 51.9739 74.9808 52.2731 75.28C52.5724 75.5793 52.9783 75.7474 53.4015 75.7474H53.9509C53.4713 77.4217 53.0789 80.2731 53.8375 81.7206C54.0247 82.0933 54.2435 82.4492 54.4915 82.7845L54.5525 82.8717C55.0712 83.5579 55.6364 84.2076 56.2442 84.8162C55.8475 85.1972 55.491 85.618 55.1804 86.0719C54.8257 86.5223 54.5943 87.0572 54.5089 87.6241C54.4579 88.0709 54.4905 88.5233 54.6049 88.9582C44.8757 88.7778 35.6058 84.7869 28.7881 77.8437C21.9705 70.9005 18.1494 61.5593 18.1465 51.8285ZM57.7092 90.3011C57.2398 90.2944 56.7745 90.212 56.3314 90.057H56.75C57.6336 90.0646 58.5023 89.8293 59.2613 89.3768C60.7881 88.338 61.8997 86.7942 62.4005 85.0168L62.6185 84.9383C62.7057 85.1999 62.6709 85.5138 62.3831 86.1242C61.0402 88.9321 59.4445 90.3796 57.7092 90.3011ZM61.7291 88.374C62.175 87.7432 62.5604 87.0716 62.8801 86.3684C63.3336 85.4092 63.2725 84.947 63.0022 84.4849V84.4238L62.7842 84.1884C62.7249 84.1129 62.6696 84.0343 62.6185 83.953C62.3921 83.1002 62.3388 82.2107 62.4616 81.337C63.0654 80.8189 63.4897 80.1229 63.6737 79.3488C63.6779 79.2907 63.6779 79.2324 63.6737 79.1744H63.8219C63.8219 79.2267 63.8219 79.279 63.8219 79.3401C64.0058 80.1142 64.4301 80.8101 65.034 81.3282C65.1589 82.2014 65.1085 83.0908 64.8857 83.9442L64.7201 84.1797C64.6618 84.254 64.6093 84.3327 64.5631 84.4151V84.4762C64.3015 84.9383 64.2405 85.4005 64.6852 86.3597C64.8857 86.7782 65.095 87.1706 65.3043 87.5282C64.1278 87.8712 62.9345 88.1535 61.7291 88.374ZM69.8823 90.3011C68.1383 90.3796 66.5251 88.9321 65.1997 86.133C64.9206 85.5226 64.877 85.2086 64.9729 84.947L65.1909 85.0255C65.693 86.8 66.8006 88.3426 68.3214 89.3855C69.0809 89.8368 69.9493 90.072 70.8328 90.0657H71.2601C70.8162 90.2166 70.3511 90.296 69.8823 90.3011ZM72.2105 89.3419C71.4502 89.5735 70.6423 89.6011 69.8679 89.4221C69.0935 89.243 68.3797 88.8635 67.7982 88.3217C68.2953 87.7549 69.9346 86.1155 72.0187 86.473C72.2855 86.8231 72.4622 87.2333 72.5332 87.6677C72.6234 88.2463 72.5093 88.8383 72.2105 89.3419ZM80.2242 79.0959C79.8 78.8318 79.451 78.4627 79.2112 78.0243C78.9714 77.5859 78.8487 77.093 78.8552 76.5933C78.8559 76.2022 78.9298 75.8148 79.0732 75.451C79.6051 75.2678 81.9246 74.579 82.8751 76.384C82.0406 77.3347 81.1557 78.24 80.2242 79.0959Z" fill="white"/>
<path d="M24.9217 45.4454C23.9999 45.3948 23.0841 45.622 22.2928 46.0975C21.5015 46.573 20.871 47.275 20.4831 48.1127C20.0951 48.9504 19.9674 49.8853 20.1165 50.7964C20.2656 51.7074 20.6846 52.5528 21.3194 53.2231C21.9542 53.8935 22.7755 54.3579 23.6771 54.5564C24.5787 54.7549 25.5191 54.6782 26.3767 54.3364C27.2343 53.9946 27.9696 53.4033 28.4875 52.6391C29.0054 51.8748 29.282 50.9728 29.2817 50.0496C29.3099 48.862 28.8673 47.7115 28.0505 46.849C27.2337 45.9865 26.109 45.4819 24.9217 45.4454ZM21.0849 50.0496C21.0653 49.0913 21.3911 48.158 22.0026 47.42C22.6142 46.682 23.4707 46.1885 24.4159 46.0297C23.8917 46.5096 23.4747 47.0947 23.1922 47.7469C22.9097 48.399 22.768 49.1035 22.7766 49.8141C22.7492 50.6753 22.9551 51.5279 23.3727 52.2816C23.7902 53.0353 24.4038 53.6621 25.1484 54.0957H24.9304C23.8849 54.066 22.8937 53.6238 22.1732 52.8657C21.4527 52.1076 21.0614 51.0952 21.0849 50.0496ZM26.1599 53.8951H26.0989C25.2664 53.6047 24.55 53.053 24.0566 52.3223C23.5632 51.5916 23.3191 50.721 23.3608 49.8403C23.337 49.0846 23.5141 48.3361 23.8741 47.6712C24.2341 47.0063 24.7641 46.4489 25.41 46.0558C26.3586 46.2031 27.2219 46.6885 27.8406 47.4226C28.4593 48.1566 28.7915 49.0897 28.7759 50.0496C28.7896 50.8821 28.5456 51.6985 28.0773 52.3869C27.609 53.0753 26.9393 53.6021 26.1599 53.8951Z" fill="white"/>
<path d="M40.5044 64.987C40.4684 64.2179 40.2069 63.4764 39.7526 62.8548C39.2982 62.2331 38.671 61.7589 37.9491 61.4912C37.2272 61.2235 36.4425 61.174 35.6927 61.3491C34.9429 61.5241 34.2611 61.9158 33.7324 62.4755C33.2036 63.0352 32.8511 63.738 32.7189 64.4966C32.5867 65.2551 32.6806 66.0357 32.9888 66.7413C33.2971 67.4469 33.8061 68.0462 34.4525 68.4645C35.0989 68.8829 35.854 69.1019 36.624 69.0941C37.6802 69.0555 38.679 68.6032 39.4049 67.8349C40.1308 67.0666 40.5257 66.0438 40.5044 64.987ZM33.2232 64.987C33.2075 64.1686 33.4802 63.3707 33.9935 62.733C34.5068 62.0953 35.2281 61.6585 36.031 61.499C35.5897 61.9262 35.24 62.4387 35.0031 63.0054C34.7663 63.5721 34.6472 64.181 34.6532 64.7952C34.6292 65.5458 34.8025 66.2896 35.156 66.9521C35.5095 67.6147 36.0307 68.1729 36.6676 68.5709H36.624C36.1651 68.5596 35.713 68.4579 35.2936 68.2715C34.8741 68.0852 34.4956 67.8178 34.1796 67.4849C33.8637 67.152 33.6166 66.7599 33.4525 66.3313C33.2883 65.9026 33.2104 65.4458 33.2232 64.987ZM37.6529 68.3617C36.9206 68.1066 36.2904 67.6214 35.8566 66.9785C35.4228 66.3357 35.2087 65.5698 35.2462 64.7952C35.2264 64.1334 35.3822 63.4783 35.6977 62.8963C36.0133 62.3143 36.4772 61.8262 37.0425 61.4816C37.8711 61.6115 38.625 62.0356 39.1663 62.6762C39.7076 63.3168 40 64.131 39.9899 64.9696C40.0003 65.7075 39.781 66.4305 39.3622 67.0382C38.9435 67.646 38.3462 68.1085 37.6529 68.3617Z" fill="white"/>
<path d="M41.1149 77.1079C40.7459 77.0156 40.3619 77.0006 39.9867 77.0636C39.6116 77.1266 39.2536 77.2664 38.9349 77.4741C38.2959 77.915 37.858 78.5915 37.7174 79.3551C37.5768 80.1186 37.745 80.9067 38.185 81.5463C38.4553 81.9701 38.8277 82.3191 39.268 82.5613C39.7084 82.8036 40.2025 82.9313 40.7051 82.9328C41.2406 82.9348 41.7649 82.7802 42.2137 82.4881C42.5313 82.2792 42.8028 82.0073 43.0112 81.6894C43.2197 81.3714 43.3608 81.0141 43.4257 80.6395C43.5468 79.8744 43.3766 79.0917 42.9488 78.446C42.521 77.8002 41.8667 77.3383 41.1149 77.1515V77.1079ZM40.1645 82.3399C39.5388 82.1873 38.9956 81.8002 38.6472 81.2586C38.3568 80.8316 38.2103 80.323 38.2292 79.807C38.248 79.291 38.4311 78.7944 38.7518 78.3897C38.6451 79.1867 38.831 79.9953 39.275 80.6656C39.5379 81.087 39.8955 81.4412 40.3194 81.7001C40.7433 81.959 41.2217 82.1153 41.7166 82.1567C41.2365 82.3985 40.6848 82.4574 40.1645 82.3224V82.3399ZM42.8851 80.5959C42.8219 80.9411 42.6786 81.2667 42.4665 81.5463C41.9496 81.6722 41.4058 81.6282 40.9158 81.4209C40.4258 81.2136 40.0156 80.854 39.7459 80.3953C39.4904 80.0238 39.3352 79.5925 39.2955 79.1433C39.2557 78.6941 39.3328 78.2423 39.5192 77.8316C39.8105 77.6926 40.1294 77.621 40.4522 77.6224C40.6342 77.6211 40.8157 77.6416 40.9929 77.6834C41.6161 77.8409 42.1573 78.2269 42.5094 78.7647C42.8615 79.3025 42.9987 79.953 42.8938 80.5871L42.8851 80.5959Z" fill="white"/>
<path d="M37.2346 28.9123C37.9728 28.9123 38.6943 28.6934 39.3081 28.2833C39.9218 27.8732 40.4002 27.2904 40.6827 26.6084C40.9651 25.9264 41.0391 25.176 40.8951 24.4521C40.751 23.7281 40.3956 23.0631 39.8736 22.5411C39.3517 22.0192 38.6867 21.6637 37.9627 21.5197C37.2387 21.3757 36.4883 21.4496 35.8064 21.7321C35.1244 22.0146 34.5415 22.4929 34.1314 23.1067C33.7213 23.7204 33.5024 24.442 33.5024 25.1802C33.5024 26.17 33.8957 27.1193 34.5956 27.8192C35.2955 28.5191 36.2448 28.9123 37.2346 28.9123ZM37.2346 22.0061C37.8645 22.0061 38.4802 22.193 39.0038 22.5431C39.5274 22.8932 39.9353 23.3908 40.176 23.9729C40.4166 24.555 40.4791 25.1954 40.3556 25.813C40.2321 26.4307 39.9281 26.9978 39.4821 27.4425C39.0361 27.8873 38.4682 28.1898 37.8502 28.3116C37.2322 28.4334 36.592 28.3691 36.0105 28.1269C35.4291 27.8847 34.9326 27.4754 34.584 26.9508C34.2353 26.4262 34.0501 25.81 34.0518 25.1802C34.0541 24.3375 34.3905 23.5302 34.9871 22.9352C35.5837 22.3402 36.392 22.0061 37.2346 22.0061Z" fill="white"/>
<path d="M37.4959 27.587C38.0133 27.587 38.5191 27.4336 38.9493 27.1461C39.3795 26.8587 39.7148 26.4501 39.9128 25.9721C40.1108 25.4941 40.1626 24.9681 40.0616 24.4606C39.9607 23.9532 39.7115 23.487 39.3457 23.1212C38.9798 22.7553 38.5137 22.5062 38.0062 22.4052C37.4988 22.3043 36.9728 22.3561 36.4948 22.5541C36.0168 22.7521 35.6082 23.0874 35.3208 23.5176C35.0333 23.9478 34.8799 24.4536 34.8799 24.971C34.8799 25.6648 35.1555 26.3302 35.6461 26.8208C36.1367 27.3114 36.8021 27.587 37.4959 27.587ZM37.4959 22.9392C37.8973 22.9479 38.2874 23.0742 38.6176 23.3027C38.9479 23.5311 39.2037 23.8516 39.3534 24.2242C39.503 24.5968 39.5399 25.0051 39.4595 25.3985C39.379 25.7919 39.1847 26.153 38.9008 26.4369C38.6169 26.7209 38.2558 26.9151 37.8624 26.9956C37.469 27.076 37.0606 27.0391 36.688 26.8895C36.3154 26.7398 35.995 26.484 35.7665 26.1538C35.5381 25.8235 35.4117 25.4335 35.4031 25.032C35.3971 24.7556 35.4472 24.4808 35.5503 24.2242C35.6533 23.9676 35.8073 23.7345 36.0028 23.5389C36.1983 23.3434 36.4314 23.1895 36.688 23.0864C36.9446 22.9833 37.2194 22.9333 37.4959 22.9392Z" fill="white"/>
<path d="M78.4801 42.812C78.2871 42.2108 77.9725 41.6558 77.5558 41.1813V41.1378C77.3822 40.9385 77.1696 40.7769 76.9311 40.6629C76.6927 40.5489 76.4334 40.485 76.1693 40.475C75.7275 40.4789 75.3037 40.6503 74.9834 40.9546C74.0088 38.9165 72.4824 37.1924 70.5775 35.9779C68.6726 34.7633 66.4654 34.107 64.2063 34.0834C61.9473 34.0598 59.7269 34.6698 57.797 35.8443C55.8671 37.0188 54.305 38.7106 53.288 40.7279C53.0237 40.5737 52.722 40.4952 52.416 40.5012C52.1506 40.511 51.89 40.5748 51.6501 40.6888C51.4103 40.8027 51.1961 40.9644 51.0208 41.1639V41.2075C50.6073 41.6842 50.2931 42.2385 50.0965 42.8381C49.303 42.9166 48.7188 44.1549 48.7188 45.7855C48.7188 47.4161 49.303 48.6457 50.0878 48.7329C50.6023 50.2327 51.4743 51.1221 52.4509 51.1221C52.5408 51.1307 52.6313 51.1307 52.7212 51.1221C53.5971 53.3596 55.1138 55.2888 57.0812 56.6681C59.1141 58.1269 61.5551 58.908 64.0572 58.9004C66.5257 58.8815 68.9305 58.1147 70.9543 56.7012C72.9781 55.2876 74.5258 53.2938 75.3932 50.9826C75.6137 51.0888 75.8548 51.1454 76.0996 51.1483C77.0675 51.1483 77.9482 50.2763 78.4627 48.759C79.2475 48.6718 79.8317 47.4336 79.8317 45.8117C79.8317 44.1898 79.23 42.8905 78.4801 42.812ZM77.2942 49.849C76.7453 49.3303 76.3165 48.6978 76.0378 47.9958C75.7592 47.2939 75.6374 46.5395 75.681 45.7855C75.6396 45.0305 75.7624 44.2755 76.0409 43.5724C76.3194 42.8694 76.747 42.2352 77.2942 41.7133C77.5748 42.0898 77.7954 42.5075 77.9482 42.9515C77.3552 43.3177 76.9454 44.4077 76.9454 45.7593C76.9454 47.1109 77.364 48.2184 77.9569 48.5846C77.7912 49.0414 77.5526 49.4684 77.2506 49.849H77.2942ZM64.0311 34.7024C66.2264 34.7163 68.3732 35.3498 70.2243 36.5299C72.0755 37.71 73.5559 39.3889 74.4951 41.3732C73.6379 42.6611 73.2105 44.1874 73.2743 45.7332C72.5822 43.8517 71.3284 42.2286 69.6828 41.0837C68.0372 39.9388 66.0794 39.3275 64.0747 39.3327C62.2507 39.3406 60.4632 39.8437 58.9028 40.7882C57.3425 41.7327 56.0679 43.0832 55.2152 44.6955C55.1486 43.3492 54.6293 42.0648 53.7415 41.0505C54.7022 39.1447 56.1725 37.5425 57.9889 36.4219C59.8053 35.3013 61.8968 34.706 64.0311 34.7024ZM54.7792 48.9334C54.7792 48.9334 54.7792 48.9334 54.7792 48.8637C55.1024 47.9294 55.2704 46.9485 55.2762 45.9599C55.9524 44.1714 57.1556 42.6302 58.7266 41.5403C60.2977 40.4504 62.1626 39.863 64.0747 39.8559C65.858 39.9005 67.5885 40.47 69.0498 41.4933C70.511 42.5165 71.638 43.9479 72.2898 45.6084C72.9415 47.269 73.0891 49.0849 72.714 50.8288C72.3389 52.5728 71.4578 54.1674 70.1809 55.4132C68.9041 56.6589 67.2882 57.5003 65.5355 57.8323C63.7828 58.1642 61.9711 57.9719 60.3271 57.2793C58.6832 56.5868 57.28 55.4248 56.2932 53.9387C55.3064 52.4527 54.7797 50.7086 54.7792 48.9247V48.9334ZM51.2912 49.849C51.0037 49.4628 50.7799 49.0329 50.6284 48.5759C51.2301 48.2097 51.64 47.1197 51.64 45.7506C51.64 44.3816 51.2388 43.309 50.6459 42.9428C50.7957 42.4975 51.0166 42.0794 51.2999 41.7045C51.8471 42.2264 52.2746 42.8607 52.5531 43.5637C52.8316 44.2667 52.9544 45.0218 52.9131 45.7768C52.958 46.5322 52.8368 47.2883 52.5581 47.9918C52.2794 48.6954 51.8499 49.3293 51.2999 49.849H51.2912ZM49.2681 45.7593C49.2681 44.2769 49.8 43.3613 50.1401 43.3613C50.4802 43.3613 51.0121 44.2333 51.0121 45.7593C51.0121 47.2853 50.4889 48.1661 50.1401 48.1661C49.7913 48.1661 49.2768 47.2505 49.2768 45.7593H49.2681ZM51.6836 50.2501C52.2748 49.6726 52.7361 48.9757 53.0368 48.2058C53.3376 47.436 53.4708 46.6109 53.4276 45.7855C53.4725 44.96 53.3401 44.1344 53.0392 43.3643C52.7384 42.5941 52.2762 41.8974 51.6836 41.3209C51.8984 41.1381 52.169 41.0336 52.4509 41.0244C53.6804 41.0244 54.7181 43.2044 54.7181 45.7855C54.7181 48.3666 53.6804 50.5466 52.4509 50.5466C52.172 50.5355 51.9048 50.4311 51.6923 50.2501H51.6836ZM53.2444 50.8867C53.6662 50.6434 54.0177 50.2949 54.2647 49.8752C54.4105 51.2751 54.8627 52.6258 55.589 53.8314C56.3154 55.037 57.2982 56.068 58.4677 56.8512C56.0912 55.5269 54.2481 53.4188 53.2532 50.8867H53.2444ZM69.7601 56.7814C71.0171 55.9075 72.0466 54.7453 72.7627 53.3922C73.4787 52.039 73.8604 50.5341 73.876 49.0032C74.1028 49.6218 74.4734 50.1777 74.9572 50.6251C74.0029 53.2246 72.1627 55.4045 69.7601 56.7814ZM73.8236 45.7855C73.8236 43.1695 74.8613 41.0244 76.0908 41.0244C76.3728 41.0336 76.6433 41.1381 76.8582 41.3209C76.2656 41.8974 75.8033 42.5941 75.5025 43.3643C75.2017 44.1344 75.0693 44.96 75.1142 45.7855C75.071 46.6109 75.2042 47.436 75.5049 48.2058C75.8056 48.9757 76.267 49.6726 76.8582 50.2501C76.6433 50.4329 76.3728 50.5374 76.0908 50.5466C74.8613 50.5466 73.8236 48.3666 73.8236 45.7855ZM78.3668 48.1661C77.9831 48.1661 77.4512 47.2505 77.4512 45.7593C77.4512 44.2682 77.9831 43.3439 78.3668 43.3439C78.7504 43.3439 79.2388 44.2159 79.2388 45.7419C79.2388 47.2679 78.7417 48.1661 78.3668 48.1661Z" fill="white"/>
<path d="M63.8301 41.8005C63.8301 41.8005 67.2134 41.4604 67.4402 43.1695C67.6669 44.8787 65.7921 47.6255 64.2748 47.7039C63.324 47.6466 62.4246 47.2528 61.7376 46.593C61.0506 45.9331 60.6208 45.0503 60.5252 44.1026C60.281 41.8441 63.0017 41.8267 63.8301 41.8005Z" fill="#FFDD92"/>
<path d="M70.3005 44.5735C70.3005 44.5735 71.5388 45.6984 71.2597 49.5788C70.9807 53.4592 69.6901 53.7644 69.9692 54.2876C70.2482 54.8108 71.2859 53.2412 71.8091 51.096C72.3323 48.9509 71.3731 43.9369 70.3005 44.5735Z" fill="#FFDD92"/>
<path d="M60.4211 55.9881C60.4211 55.9881 61.7203 56.9211 64.9467 56.6421C68.1731 56.363 68.4347 55.6393 68.8184 55.8398C69.2021 56.0404 67.4058 57.732 64.1096 57.732C60.8135 57.732 59.2439 55.7265 60.4211 55.9881Z" fill="#FFDD92"/>
<g opacity="0.3">
<path opacity="0.3" d="M62.531 80.7615C63.3158 80.7615 64.0918 80.683 64.8679 80.6045L65.5306 81.398L65.3214 82.4706L65.2603 83.7263L64.929 84.3454L64.6848 85.2784L65.5568 87.284L65.3475 87.9293L63.5512 88.2519L61.3538 88.6618L61.7549 87.9729L62.3478 86.9265L63.0106 85.6621L62.9495 84.8773L62.6879 84.2582L62.3478 83.7263L62.2083 82.3136L62.3478 81.119L62.531 80.7615Z" fill="white"/>
</g>
<path opacity="0.3" d="M60.011 34.9814C59.9936 34.9814 59.977 34.9883 59.9647 35.0006C59.9524 35.0129 59.9456 35.0295 59.9456 35.0468C59.9456 35.0642 59.9524 35.0808 59.9647 35.0931C59.977 35.1054 59.9936 35.1122 60.011 35.1122C60.0283 35.1122 60.0449 35.1054 60.0572 35.0931C60.0695 35.0808 60.0764 35.0642 60.0764 35.0468C60.0764 35.0295 60.0695 35.0129 60.0572 35.0006C60.0449 34.9883 60.0283 34.9814 60.011 34.9814Z" fill="white"/>
<path opacity="0.3" d="M66.6994 65.7283C66.2896 65.9376 65.8274 66.1469 65.4699 65.7283C65.1124 65.3098 65.4699 64.7517 65.6094 64.3506C65.622 64.3009 65.6181 64.2484 65.5982 64.2011C65.5783 64.1538 65.5434 64.1144 65.499 64.0887C65.4546 64.063 65.403 64.0526 65.3521 64.0589C65.3012 64.0653 65.2538 64.0881 65.217 64.1239C64.9189 64.3961 64.7304 64.7679 64.6871 65.1693C64.6437 65.5708 64.7484 65.9742 64.9816 66.3039C65.1204 66.4452 65.2859 66.5574 65.4686 66.6341C65.6512 66.7107 65.8473 66.7501 66.0454 66.7501C66.2435 66.7501 66.4396 66.7107 66.6222 66.6341C66.8049 66.5574 66.9705 66.4452 67.1093 66.3039C67.1856 66.2495 67.2372 66.1671 67.2527 66.0747C67.2682 65.9823 67.2464 65.8875 67.1921 65.8112C67.1377 65.7349 67.0553 65.6833 66.9629 65.6677C66.8705 65.6522 66.7757 65.674 66.6994 65.7283Z" fill="white"/>
<path opacity="0.3" d="M67.3353 67.9432C66.9239 68.1493 66.4701 68.2567 66.0099 68.2571C65.8037 68.2347 65.6136 68.135 65.478 67.978C65.3825 67.8129 65.3147 67.6332 65.2774 67.4461C65.2701 67.4198 65.2561 67.3958 65.2366 67.3765C65.2172 67.3572 65.193 67.3434 65.1666 67.3364C65.1402 67.3293 65.1123 67.3293 65.0859 67.3363C65.0594 67.3433 65.0353 67.3571 65.0158 67.3764C64.6496 67.7862 65.0856 68.3879 65.478 68.6059C65.8092 68.7429 66.1695 68.7948 66.526 68.7567C66.8824 68.7186 67.2236 68.5918 67.5185 68.3879C67.567 68.3572 67.6031 68.3103 67.6205 68.2556C67.6379 68.2009 67.6354 68.1418 67.6136 68.0887C67.5917 68.0356 67.5518 67.9919 67.5009 67.9653C67.4501 67.9386 67.3914 67.9308 67.3353 67.9432Z" fill="white"/>
<path opacity="0.3" d="M79.5961 66.5218C79.4697 65.6084 79.1092 64.7433 78.5497 64.0104C78.2968 63.6616 78.0178 63.339 77.7562 62.9989C77.4946 62.6588 77.2766 62.1967 76.8842 61.9961C76.864 61.9854 76.8416 61.9798 76.8188 61.9798C76.796 61.9798 76.7735 61.9854 76.7534 61.9961C76.7809 61.9306 76.7917 61.8592 76.7848 61.7885C76.7778 61.7177 76.7533 61.6498 76.7134 61.5909C76.6736 61.5321 76.6197 61.4841 76.5566 61.4513C76.4936 61.4185 76.4233 61.4019 76.3522 61.4031C76.2464 61.412 76.1414 61.4295 76.0383 61.4555C75.9628 61.4704 75.8932 61.5067 75.8378 61.5601C75.7878 61.5581 75.7383 61.5695 75.6943 61.5931C75.6503 61.6168 75.6134 61.6518 75.5876 61.6946C75.5617 61.7374 75.5478 61.7863 75.5474 61.8363C75.5469 61.8862 75.5599 61.9354 75.5849 61.9787C75.8218 62.4244 76.1448 62.8186 76.5354 63.1384L76.6226 63.2082C76.694 63.2626 76.7813 63.2921 76.8711 63.2921C76.9609 63.2921 77.0482 63.2626 77.1196 63.2082C77.3812 63.557 77.7038 63.8883 77.9044 64.1587C78.4121 64.9424 78.7286 65.8344 78.8286 66.7628C78.9285 67.6912 78.8091 68.6302 78.4799 69.504C78.0178 70.1406 77.2678 70.5591 77.4161 71.4486C77.4552 71.5739 77.5292 71.6854 77.6295 71.77C77.7299 71.8547 77.8523 71.9089 77.9824 71.9263C78.1125 71.9437 78.2448 71.9236 78.3639 71.8683C78.4829 71.813 78.5837 71.7249 78.6543 71.6143C78.8549 71.2742 78.9246 70.9254 79.1514 70.594C79.3888 70.27 79.5524 69.898 79.631 69.504C79.7502 68.5127 79.7385 67.51 79.5961 66.5218Z" fill="white"/>
<path opacity="0.3" d="M53.0543 74.5411C53.0642 74.5252 53.0752 74.5033 53.0875 74.4744C53.0751 74.4961 53.0641 74.5183 53.0543 74.5411Z" fill="white"/>
<path opacity="0.3" d="M71.6786 87.8161C71.5937 87.4151 71.4129 87.0406 71.1517 86.7248C70.8905 86.4089 70.5567 86.161 70.1788 86.0023C70.0704 85.5227 69.8321 85.0822 69.4899 84.7292C70.0069 84.178 70.3969 83.5202 70.6322 82.8021C70.8434 81.9121 70.7029 80.9749 70.2398 80.1861C69.7667 79.4382 69.4879 78.5839 69.4289 77.7009C69.48 76.802 69.6804 75.9179 70.0218 75.0849C70.109 74.832 69.769 74.5442 69.5422 74.7186C69.3783 74.8437 69.2238 74.9806 69.0801 75.1285C68.9697 75.0476 68.8404 74.9963 68.7045 74.9795C68.5687 74.9628 68.4308 74.981 68.304 75.0325C67.4626 75.4255 66.6744 75.9236 65.9583 76.5149C65.2103 76.9974 64.6359 77.7062 64.319 78.538C64.2708 78.7474 64.2708 78.9651 64.319 79.1745C64.1271 78.8955 63.6301 79.035 63.447 79.3664C63.201 80.0982 62.8795 80.8025 62.4878 81.4679C62.2183 82.1966 62.1728 82.9891 62.357 83.7438C62.4453 84.1123 62.5894 84.4652 62.7842 84.7902C62.885 84.9633 62.9438 85.1576 62.9559 85.3575C62.968 85.5573 62.9331 85.7573 62.854 85.9413C62.7581 86.2617 62.6234 86.5691 62.4529 86.8569C62.3145 86.9955 62.2127 87.1663 62.1564 87.3539C61.9907 87.6155 61.8076 87.8684 61.6332 88.1213C61.4588 88.3741 61.8163 88.7753 62.0954 88.5921C62.2693 88.4759 62.4327 88.3446 62.5837 88.1997C63.1941 88.409 63.8306 87.9643 64.4759 88.0253C64.5942 88.0411 64.7144 88.0295 64.8274 87.9912C64.9404 87.953 65.0431 87.8892 65.1274 87.8049C65.2118 87.7205 65.2756 87.6179 65.3138 87.5049C65.352 87.3919 65.3637 87.2716 65.3479 87.1533C65.6686 87.732 66.0644 88.2656 66.5251 88.7404C67.5715 89.8653 69.4725 91.4785 71.1031 90.4844C71.9664 89.9176 71.8879 88.6881 71.6786 87.8161ZM64.3887 79.5321C64.5718 80.0204 64.9294 80.4651 65.1474 80.9447L65.2782 81.2848L65.2258 81.215C64.8247 80.5872 64.3887 80.2471 64.3887 79.5059V79.5321ZM64.9817 85.2262C64.9315 85.6137 64.9552 86.0073 65.0514 86.386C64.8901 86.011 64.8654 85.5914 64.9817 85.2001V85.2262Z" fill="white"/>
<path opacity="0.3" d="M75.2012 73.271C75.2702 73.2447 75.3296 73.1981 75.3716 73.1374C75.4136 73.0767 75.4363 73.0048 75.4367 72.931C75.4584 72.7397 75.4584 72.5467 75.4367 72.3554C75.4453 72.251 75.4453 72.146 75.4367 72.0415C75.4736 71.625 75.4531 71.2055 75.3756 70.7946C75.271 70.1406 75.0617 69.5214 74.9571 68.8762C74.8524 68.2309 74.8437 67.4635 74.7216 66.7659C74.4182 65.5024 73.921 64.2935 73.248 63.182C72.6259 62.0242 72.221 60.7622 72.0533 59.4586C72.0995 59.4669 72.1467 59.4669 72.1928 59.4586C72.201 59.4625 72.21 59.4645 72.219 59.4645C72.2281 59.4645 72.237 59.4625 72.2452 59.4586C72.4693 60.0985 72.7617 60.7124 73.1172 61.2898C73.5931 62.1193 74.1386 62.9069 74.7478 63.6442C74.9832 63.9319 75.4367 63.5657 75.2536 63.2518C74.896 62.6239 74.46 62.0397 74.0938 61.4119C73.6908 60.7195 73.4521 59.9438 73.3962 59.1447C73.2867 58.4851 73.3224 57.8096 73.5008 57.1652C73.7683 56.5819 74.1407 56.0528 74.5996 55.6043C74.6297 55.5726 74.6513 55.5337 74.6626 55.4914C74.6738 55.4491 74.6742 55.4047 74.6638 55.3622C74.6534 55.3196 74.6325 55.2804 74.603 55.2481C74.5734 55.2157 74.5363 55.1913 74.4949 55.1771C74.3144 55.1334 74.1261 55.1334 73.9456 55.1771C73.9064 55.0956 73.8443 55.0274 73.7668 54.9809C73.6893 54.9344 73.5999 54.9116 73.5096 54.9154C73.2835 54.9201 73.0619 54.98 72.8643 55.0899C72.7779 55.0479 72.6789 55.0398 72.5869 55.0673C72.4949 55.0947 72.4165 55.1557 72.3672 55.2381C72.1365 55.5913 71.8055 55.8676 71.4168 56.0316C71.339 56.0653 71.2746 56.1238 71.2336 56.1979C71.1926 56.2721 71.1773 56.3577 71.19 56.4414C71.0593 56.4913 70.9253 56.5321 70.7889 56.5635C70.7246 56.5839 70.6664 56.6201 70.6198 56.6689C70.5731 56.7177 70.5396 56.7775 70.5222 56.8427C70.5048 56.9079 70.5042 56.9764 70.5203 57.0419C70.5364 57.1075 70.5688 57.1679 70.6145 57.2175C70.7453 57.3483 70.6145 57.7582 70.693 57.9326C70.7353 58.0991 70.8193 58.2522 70.9372 58.3773C70.5566 58.3839 70.1925 58.5333 69.9169 58.7959C69.7363 58.9636 69.6115 59.1827 69.5594 59.4237C69.4809 59.7987 69.7076 60.0254 69.8908 60.2957C70.5756 61.528 71.1589 62.8141 71.6348 64.1412C72.1733 65.4521 72.568 66.8175 72.812 68.2134C72.9253 68.9198 73.1695 69.5651 73.3177 70.2539C73.4223 70.971 73.4223 71.6994 73.3177 72.4165C73.2967 72.3474 73.2584 72.2847 73.2066 72.2344C73.1547 72.1841 73.091 72.1477 73.0212 72.1287C72.7164 72.0476 72.4233 71.9274 72.1492 71.7712C71.6634 71.463 71.2808 71.0166 71.0505 70.4894C71.0369 70.4461 71.0145 70.4062 70.9849 70.3719C70.9552 70.3377 70.9187 70.3099 70.8779 70.2902C70.837 70.2706 70.7926 70.2596 70.7473 70.2579C70.702 70.2561 70.6568 70.2637 70.6145 70.2801C70.531 70.1387 70.4609 69.9898 70.4052 69.8354C70.3745 69.7465 70.3168 69.6693 70.2403 69.6146C70.1637 69.5599 70.072 69.5304 69.978 69.5302C69.9535 69.4051 69.8996 69.2877 69.8208 69.1876C69.7419 69.0875 69.6404 69.0077 69.5245 68.9547C69.47 68.938 69.412 68.9365 69.3567 68.9503C69.3014 68.9642 69.2509 68.9928 69.2106 69.0331C69.0932 69.2067 69.0131 69.4026 68.9752 69.6087C68.8874 69.8396 68.8459 70.0855 68.8531 70.3324C68.8726 70.5687 68.9505 70.7964 69.0798 70.9951C69.136 71.2887 69.2517 71.5677 69.4199 71.8148C69.6701 72.2628 69.962 72.6862 70.2919 73.0792C70.9608 73.9379 71.8721 74.5759 72.9079 74.9104H73.1084C73.1495 74.983 73.2091 75.0433 73.2811 75.0853C73.3531 75.1273 73.4349 75.1494 73.5183 75.1494C73.6016 75.1494 73.6835 75.1273 73.7555 75.0853C73.8275 75.0433 73.8871 74.983 73.9281 74.9104C74.0658 74.695 74.2669 74.5274 74.5036 74.4308C74.7657 74.3744 75.0248 74.3045 75.2797 74.2215C75.3239 74.194 75.36 74.1553 75.3845 74.1094C75.409 74.0635 75.421 74.0119 75.4192 73.9599C75.4579 73.9023 75.4831 73.8367 75.4929 73.768C75.5028 73.6992 75.497 73.6292 75.4761 73.563C75.4551 73.4968 75.4196 73.4362 75.372 73.3857C75.3244 73.3351 75.266 73.2959 75.2012 73.271ZM74.2072 73.21C73.9359 73.1475 73.6511 73.1846 73.4049 73.3147C73.3227 73.375 73.2543 73.4523 73.2044 73.5414C72.4507 73.2572 71.7359 72.8793 71.0767 72.4165C70.8321 72.2241 70.5991 72.0174 70.3791 71.7974C70.4707 71.7671 70.5541 71.7164 70.6232 71.6491L70.8761 71.902C71.3472 72.4662 71.9447 72.9113 72.6201 73.2013C72.6734 73.2328 72.7323 73.2535 72.7935 73.2623C72.8548 73.271 72.9172 73.2676 72.9771 73.2522C73.037 73.2368 73.0933 73.2097 73.1428 73.1726C73.1923 73.1354 73.2339 73.0889 73.2654 73.0356L73.3439 72.8699C73.3786 72.8025 73.3966 72.7277 73.3962 72.6519C73.4318 72.7611 73.4932 72.8601 73.5751 72.9406C73.6571 73.021 73.7572 73.0805 73.8671 73.1141C74.099 73.1925 74.3502 73.1925 74.5821 73.1141C74.5988 73.1766 74.6396 73.2299 74.6955 73.2623L74.2072 73.21Z" fill="white"/>
</svg>
